<svg xmlns="http://www.w3.org/2000/svg" fill="none" width="96" height="80" viewBox="0 0 566.929 566.929">
<defs>
  <filter id="glitch">
    <feGaussianBlur in="SourceAlpha" stdDeviation="0" result="blur" />
    <feOffset dx="0" dy="0" result="offsetblur">
      <animate attributeName="dx" from="0" to="0" begin="0.2s" dur="0.5s" repeatCount="indefinite" values="-5;-2;-2;-2;5;0" keyTimes="0;0.125;0.275;0.625;0.875;1" />
      <animate attributeName="dy" from="0" to="0" begin="0s" dur="0.3s" repeatCount="indefinite" values="1;1.5;3;1.7;-1.7;0" keyTimes="0;0.125;0.275;0.625;0.875;1" />
    </feOffset>
    <feOffset dx="60" dy="-12" result="offsetblur2" in="blur">
      <animate attributeName="dx" from="0" to="0" begin="0s" dur="0.1s" repeatCount="indefinite" values="0;5;-2;-2;-2;-5" keyTimes="0;0.125;0.275;0.625;0.875;1" />
      <animate attributeName="dy" from="0" to="0" begin="0s" dur="0.3s" repeatCount="indefinite" values="0;-1.7;1.7;-3;1.5;1" keyTimes="0;0.125;0.275;0.625;0.875;1" />
    </feOffset>
    <feComponentTransfer result="shadow1" in="offsetblur">
      <feFuncA type="linear" slope=".8" />
      <feFuncR type="discrete" tableValues="0" />
      <feFuncG type="discrete" tableValues="1" />
      <feFuncB type="discrete" tableValues="1" />
    </feComponentTransfer>
    <feComponentTransfer result="shadow2" in="offsetblur2">
      <feFuncA type="linear" slope=".8" />
      <feFuncR type="discrete" tableValues="1" />
      <feFuncG type="discrete" tableValues="0" />
      <feFuncB type="discrete" tableValues="1" />
    </feComponentTransfer>
    <feMerge>
      <feMergeNode in="shadow1" />
      <feMergeNode in="shadow2" />
      <feMergeNode in="SourceGraphic" />
    </feMerge>
  </filter>
</defs>
<g filter="url(#glitch)">
  <path fill-rule="evenodd" clip-rule="evenodd" fill="white" d="M 294.234375 206.511719 L 315.320312 213.605469 L 316.511719 214.003906 L 317.554688 214.707031 L 342.300781 231.304688 L 342.300781 227.898438 L 332.3125 192.105469 L 301.097656 135.917969 L 288.195312 116.355469 L 273.628906 138.832031 L 263.960938 175.566406 L 271.953125 184.230469 Z M 294.234375 206.511719 "/>
  <path fill-rule="evenodd" clip-rule="evenodd" fill="white" d="M 358.1875 361.515625 L 296.953125 325.792969 L 320.898438 331.289062 L 312.261719 315.980469 L 265.546875 300.277344 L 289.101562 341.886719 L 276.539062 341.101562 L 247.097656 296.351562 L 200.386719 288.5 L 235.714844 332.464844 L 322.859375 371.328125 L 302.054688 376.824219 L 231.789062 346.988281 L 174.871094 276.332031 L 174.476562 270.835938 L 260.054688 280.648438 L 333.851562 305.773438 L 367.21875 348.953125 Z M 422.464844 380.804688 L 405.5625 360.25 L 400.984375 347.761719 L 395.574219 306.144531 L 386.832031 289.496094 L 365.753906 266.457031 L 346.460938 245.378906 L 336.96875 239.007812 L 312.335938 222.488281 L 289.164062 214.695312 L 265.191406 190.722656 L 265.082031 190.605469 L 250.417969 174.699219 L 235.640625 158.675781 L 184.976562 116.773438 L 181.4375 143.824219 L 177.902344 170.878906 L 179.980469 194.601562 L 182.0625 218.324219 L 196.628906 240.382812 L 179.566406 262.027344 L 160.003906 265.457031 L 155.84375 266.1875 L 169.160156 285.332031 L 156.257812 330.28125 L 182.480469 380.644531 L 295.59375 405.660156 L 316.082031 410.191406 L 321.8125 411.117188 L 357.285156 416.851562 L 383.980469 426.363281 L 393.492188 429.753906 L 407.644531 423.925781 L 421.792969 418.101562 L 434.28125 406.03125 L 436.363281 397.707031 Z M 422.464844 380.804688 "/>
</g>
</svg>
