<svg width="18" height="18" viewBox="0 0 18 18" fill="none" xmlns="http://www.w3.org/2000/svg">
<path d="M15.9778 15.0469L12.2091 11.2781C13.0247 10.2797 13.4747 9.02249 13.4747 7.64999C13.4747 4.41843 10.8554 1.79999 7.62469 1.79999C4.39396 1.79999 1.79999 4.41927 1.79999 7.64999C1.79999 10.8807 4.419 13.5 7.62469 13.5C8.99691 13.5 10.2558 13.0244 11.2528 12.2332L15.0216 16.002C15.1791 16.1353 15.3534 16.2 15.525 16.2C15.6966 16.2 15.8704 16.1341 16.0023 16.0022C16.2647 15.7387 16.2647 15.3112 15.9778 15.0469ZM3.14999 7.64999C3.14999 5.1688 5.16881 3.14999 7.65 3.14999C10.1312 3.14999 12.15 5.1688 12.15 7.64999C12.15 10.1312 10.1312 12.15 7.65 12.15C5.16881 12.15 3.14999 10.1306 3.14999 7.64999Z" fill="#6B7386"/>
</svg>
