<svg width="96" height="80" viewBox="0 0 59.595 59.382" fill="none" xmlns="http://www.w3.org/2000/svg"><path fill-rule="evenodd" clip-rule="evenodd" d="M 15.587 11.309 L 0.66 0.704 L 6.096 27.215 C 6.477 29.242 7.316 31.104 8.49 32.697 C 12.497 38.364 22.146 52.018 25.473 56.81 C 26.552 58.359 28.293 59.234 29.925 59.234 C 31.555 59.234 33.298 58.359 34.377 56.81 C 36.124 54.294 39.616 49.331 43.12 44.365 L 38.941 36.146 C 35.687 36.934 32.203 35.43 30.592 32.264 C 28.693 28.532 30.122 23.929 33.786 21.994 C 37.448 20.057 41.956 21.511 43.856 25.249 C 45.471 28.412 44.668 32.181 42.164 34.443 L 45.497 40.997 C 47.804 37.727 49.939 34.708 51.36 32.697 C 52.533 31.104 53.371 29.242 53.751 27.215 L 59.19 0.704 L 44.261 11.309 L 15.587 11.309 Z" style="fill: rgb(31, 101, 171);"></path></svg>
